<svg width="24" height="24" viewBox="0 0 20 20" fill="none" xmlns="http://www.w3.org/2000/svg"><path fill-rule="evenodd" clip-rule="evenodd" d="M19.7559 0.244078C20.0814 0.569515 20.0814 1.09715 19.7559 1.42259L1.42259 19.7559C1.09715 20.0814 0.569515 20.0814 0.244078 19.7559C-0.0813592 19.4305 -0.0813592 18.9028 0.244078 18.5774L18.5774 0.244078C18.9028 -0.0813592 19.4305 -0.0813592 19.7559 0.244078Z" fill="#1A1A1A"/><path fill-rule="evenodd" clip-rule="evenodd" d="M0.244078 0.244078C0.569515 -0.0813592 1.09715 -0.0813592 1.42259 0.244078L19.7559 18.5774C20.0814 18.9028 20.0814 19.4305 19.7559 19.7559C19.4305 20.0814 18.9028 20.0814 18.5774 19.7559L0.244078 1.42259C-0.0813592 1.09715 -0.0813592 0.569515 0.244078 0.244078Z" fill="#1A1A1A"/></svg>