<svg width="39" height="50" viewBox="0 0 39 50" fill="none" xmlns="http://www.w3.org/2000/svg">
<path d="M6.08984 34.4663H33.1455" stroke="black" stroke-width="3" stroke-linecap="round"/>
<path d="M11.5 20.9385H27.7334" stroke="black" stroke-width="3" stroke-linecap="round"/>
<path d="M14.207 1.99951V7.41065" stroke="black" stroke-width="3" stroke-linecap="round"/>
<path d="M25.0293 1.99951V7.41065" stroke="black" stroke-width="3" stroke-linecap="round"/>
<path d="M34.2282 15.5274H5.00811C4.11156 15.5274 3.38477 14.8006 3.38477 13.904V3.62285C3.38477 2.72631 4.11156 1.99951 5.00811 1.99951H34.2282C35.1249 1.99951 35.8516 2.72631 35.8516 3.62285V13.904C35.8516 14.8006 35.1249 15.5274 34.2282 15.5274Z" stroke="black" stroke-width="3" stroke-linecap="round"/>
<path d="M35.5825 47.9942H3.6514C2.36707 47.9942 1.57569 46.5702 2.2408 45.4715C5.52717 40.0425 12.853 27.2346 12.853 20.9385V17.1497C12.853 16.2532 13.5798 15.5273 14.4764 15.5273H24.7575C25.6542 15.5273 26.3809 16.2532 26.3809 17.1497V20.9385C26.3809 27.2346 33.7067 40.0425 36.9932 45.4715C37.6582 46.5702 36.8668 47.9942 35.5825 47.9942Z" stroke="black" stroke-width="3" stroke-linecap="round"/>
</svg>
