<svg width="195" height="195" viewBox="0 0 195 195" fill="none" xmlns="http://www.w3.org/2000/svg">
<path d="M192.266 7.43018H7.104V192.933H192.266V7.43018Z" fill="white"/>
<path d="M45.3052 74.8042V66.7075H50.109V40.2397H45.3052V34.1593L49.7195 32.1433H61.4684V66.7075H66.142V74.8042H45.3052Z" fill="black"/>
<path d="M40.1117 139.12C40.2195 137.167 40.7106 135.255 41.5576 133.493C42.4042 131.731 43.5897 130.154 45.0463 128.852C46.5025 127.551 48.2009 126.549 50.0443 125.906C51.8878 125.263 53.8397 124.991 55.788 125.105C65.168 125.105 70.361 130.893 70.361 138.632C70.361 150.24 54.2952 152.809 51.9257 160.45H62.2792V155.963H70.8152V168.546H39.8521V161.133C45.2075 146.728 60.1373 145.135 60.1373 138.632C60.1496 138.001 60.0285 137.375 59.7811 136.795C59.5338 136.214 59.1663 135.693 58.703 135.266C58.2398 134.839 57.691 134.515 57.0934 134.316C56.4957 134.117 55.8628 134.048 55.2363 134.112C54.449 134.146 53.6759 134.335 52.962 134.668C52.2478 135.003 51.6068 135.475 51.0758 136.058C50.5449 136.642 50.1344 137.325 49.8679 138.068C49.6018 138.811 49.4849 139.599 49.5241 140.388L40.1117 139.12Z" fill="black"/>
<path d="M132.19 158.694L141.927 155.703C142.414 158.564 143.875 160.71 147.023 160.71C147.685 160.755 148.349 160.656 148.969 160.419C149.589 160.181 150.15 159.811 150.614 159.335C151.077 158.859 151.431 158.287 151.652 157.66C151.872 157.033 151.954 156.365 151.891 155.703C151.891 151.931 149.197 150.045 144.848 150.045H143.323V143.444H144.913C149.392 143.444 151.404 141.428 151.404 138.144C151.443 137.549 151.354 136.953 151.144 136.395C150.934 135.837 150.608 135.331 150.187 134.91C149.766 134.488 149.26 134.161 148.704 133.951C148.147 133.74 147.552 133.651 146.958 133.689C144.394 133.689 142.706 135.51 142.22 138.729L133.034 136.096C133.724 132.85 135.563 129.965 138.213 127.974C140.862 125.984 144.142 125.022 147.445 125.268C156.792 125.268 161.596 130.275 161.596 137.819C161.695 139.813 161.103 141.779 159.92 143.385C158.736 144.991 157.035 146.138 155.104 146.631C157.304 147.077 159.262 148.318 160.609 150.116C161.955 151.914 162.595 154.145 162.407 156.385C162.407 164.059 156.987 169.587 146.861 169.587C138.649 169.457 133.684 165.327 132.19 158.694Z" fill="black"/>
<path d="M194.863 7.82104H98.8579V101.012H194.863V7.82104Z" fill="#B6BDFF"/>
<path d="M0.613281 0.375V194.625H194.863V0.375H0.613281ZM185.694 92.9477H102.291V9.4795H185.694V92.9477ZM93.186 9.4795V92.9477H9.71778V9.4795H93.186ZM9.71778 102.052H93.186V185.455H9.71778V102.052ZM102.291 185.455V102.052H185.694V185.455H102.291Z" fill="black"/>
</svg>
