<svg width="195" height="193" viewBox="0 0 195 193" fill="none" xmlns="http://www.w3.org/2000/svg">
<path d="M40 5H6V38H40V5Z" fill="#AEB6FF"/>
<path d="M42 41H76V74H42V41Z" fill="#AEB6FF"/>
<path d="M115 44H149V77H115V44Z" fill="#AEB6FF"/>
<path d="M152 114H118V147H152V114Z" fill="#AEB6FF"/>
<path d="M152 154H186V187H152V154Z" fill="#AEB6FF"/>
<path d="M42 114H76V147H42V114Z" fill="#AEB6FF"/>
<path d="M38 152H4V185H38V152Z" fill="#AEB6FF"/>
<path d="M189.148 82.5116C191.795 82.5116 193.831 80.4843 193.831 77.8487V41.3571C193.831 38.7216 191.795 36.6943 189.148 36.6943H156.98V4.66282C156.98 2.02731 154.944 0 152.298 0H115.447C112.8 0 110.764 2.02731 110.764 4.66282V36.6943H46.428V4.66282C46.428 2.02731 44.3921 0 41.7453 0H5.09822C2.45148 0 0.415527 2.02731 0.415527 4.66282V78.0515C0.415527 80.687 2.45148 82.7143 5.09822 82.7143H37.2663V146.98H5.09822C2.45148 146.98 0.415527 149.007 0.415527 151.643V188.337C0.415527 190.973 2.45148 193 5.09822 193H41.9489H78.7997C81.4464 193 83.4824 190.973 83.4824 188.337V82.917H111.171V151.643C111.171 154.278 113.207 156.306 115.854 156.306H148.022V187.526C148.022 190.162 150.058 192.189 152.705 192.189H189.555C192.202 192.189 194.238 190.162 194.238 187.526V151.237V150.629V114.543C194.238 111.908 192.202 109.88 189.555 109.88H156.98V82.5116H189.148ZM147.818 110.083H120.129V82.5116H147.818V110.083ZM120.129 73.3887V45.8172H147.818V73.3887H120.129ZM184.669 73.3887H156.98V45.8172H184.669V73.3887ZM120.129 9.1229H147.818V36.6943H120.129V9.1229ZM46.428 119.206H74.117V146.777H46.428V119.206ZM74.117 110.083H46.428V82.5116H74.117V110.083ZM74.117 73.3887H46.428V45.8172H74.117V73.3887ZM9.57731 9.1229H37.2663V36.6943H9.57731V9.1229ZM9.57731 45.8172H37.2663V73.3887H9.57731V45.8172ZM9.57731 155.9H37.2663V183.472H9.57731V155.9ZM74.117 183.472H46.428V155.9H74.117V183.472ZM83.2788 45.8172H110.968V73.3887H83.2788V45.8172ZM120.129 119.206H147.818V146.777H120.129V119.206ZM156.98 182.863V155.9H184.669V182.863H156.98ZM184.669 146.169H156.98V119.206H184.669V146.169Z" fill="black"/>
</svg>
