<svg width="196" height="195" viewBox="0 0 196 195" fill="none" xmlns="http://www.w3.org/2000/svg">
<rect x="6" y="5" width="41" height="98" fill="#B6BDFF"/>
<rect x="98" y="13" width="50" height="175" fill="#B6BDFF"/>
<path d="M48.0941 147.006V97.8H97.4077V147.006H48.0941ZM7.53921 181.548V147.606H47.4941V187.474H13.4784C11.9019 187.474 10.3937 186.85 9.27901 185.738L9.0671 185.95L9.279 185.738C8.16434 184.626 7.53921 183.121 7.53921 181.548ZM98.0077 147.606H147.321V187.474H98.0077V147.606ZM147.921 147.006V97.8H187.876V147.006H147.921ZM147.321 97.2H98.0077V47.9935H147.321V97.2ZM147.921 47.3935V7.52581H181.937C183.514 7.52581 185.022 8.1498 186.136 9.26213L186.348 9.04977L186.136 9.26214C187.251 10.3744 187.876 11.8791 187.876 13.4516V47.3935H147.921ZM97.4077 47.3935H48.0941V7.52581H97.4077V47.3935ZM47.4941 47.9935V97.2H7.53921V47.9935H47.4941ZM13.4784 0.7C10.0907 0.7 6.83943 2.04516 4.44388 4.43557C2.04777 6.82604 0.7 10.0706 0.7 13.4516V181.548C0.7 184.929 2.04779 188.174 4.4439 190.564C6.83943 192.955 10.0907 194.3 13.4784 194.3H181.937C185.325 194.3 188.576 192.955 190.972 190.564C193.368 188.174 194.715 184.929 194.715 181.548V13.4516C194.715 10.0706 193.368 6.82601 190.972 4.43555C188.576 2.04514 185.325 0.7 181.937 0.7H13.4784Z" fill="black" stroke="black" stroke-width="0.6"/>
</svg>
