<svg width="67" height="67" viewBox="0 0 67 67" fill="none" xmlns="http://www.w3.org/2000/svg">
<path d="M12.194 18.9609H16.817V29.3459H12.194V18.9609Z" fill="#1930FF"/>
<path d="M21.708 18.9609H26.3311V29.3459H21.708V18.9609Z" fill="#1930FF"/>
<path d="M31.155 18.9609H35.7781V29.3459H31.155V18.9609Z" fill="#1930FF"/>
<path d="M40.6689 18.9609H45.292V29.3459H40.6689V18.9609Z" fill="#1930FF"/>
<path d="M50.183 18.9609H54.806V29.3459H50.183V18.9609Z" fill="#1930FF"/>
<path d="M6.29817 12.9981H18.0902V8.375H1.67517V24.857H6.29823L6.29817 12.9981Z" fill="#1930FF"/>
<path d="M60.702 24.857H65.325V8.375H48.91V12.9981H60.702L60.702 24.857Z" fill="#1930FF"/>
<path d="M60.702 54.002H48.91V58.6251H65.325V42.1431H60.702L60.702 54.002Z" fill="#1930FF"/>
<path d="M6.29798 42.1431H1.67493V58.6251H18.0899V54.002H6.29793L6.29798 42.1431Z" fill="#1930FF"/>
<path d="M1.67493 32.3608V36.3808H12.1939V48.0388H16.817V36.3808H21.7081V48.0388H26.3312V36.3808H31.155V48.0388H35.7781V36.3808H40.669V48.0388H45.292V36.3808H50.1832V48.0388H54.8062V36.3808H65.3252V32.3608H1.67493Z" fill="#1930FF"/>
</svg>
