<svg width="685" height="685" viewBox="0 0 685 685" fill="none" xmlns="http://www.w3.org/2000/svg">
<g clip-path="url(#clip0_27_347)">
<path d="M179.059 329.023C234.733 329.023 280.028 282.747 280.028 225.867C280.028 168.978 234.733 122.695 179.059 122.695C123.385 122.695 78.09 168.979 78.09 225.867C78.09 282.748 123.384 329.023 179.059 329.023Z" fill="black"/>
<path d="M303.729 509.206C303.729 506.205 301.294 503.77 298.293 503.77H53.7762C50.7749 503.77 48.34 506.205 48.34 509.206C48.34 512.208 50.7749 514.643 53.7762 514.643H298.293C301.294 514.643 303.727 512.208 303.727 509.206H303.729Z" fill="black"/>
<path d="M53.7765 464.424H298.293C301.294 464.424 303.729 461.989 303.729 458.988C303.729 455.987 301.294 453.552 298.293 453.552L53.7765 453.554C50.7752 453.554 48.3402 455.989 48.3402 458.99C48.3402 461.992 50.7752 464.424 53.7765 464.424Z" fill="black"/>
<path d="M298.295 403.345H161.637C158.636 403.345 156.201 405.78 156.201 408.781C156.201 411.783 158.636 414.218 161.637 414.218H298.295C301.296 414.218 303.731 411.783 303.731 408.781C303.729 405.78 301.296 403.345 298.295 403.345Z" fill="black"/>
<path d="M53.7765 414.214H123.692C126.693 414.214 129.128 411.779 129.128 408.778C129.128 405.776 126.693 403.341 123.692 403.341H53.7765C50.7752 403.341 48.3402 405.776 48.3402 408.778C48.3402 411.779 50.7752 414.214 53.7765 414.214Z" fill="black"/>
<path d="M217.151 358.575C217.151 361.576 219.586 364.011 222.587 364.011H298.291C301.292 364.011 303.727 361.576 303.727 358.575C303.727 355.573 301.292 353.138 298.291 353.138H222.587C219.583 353.141 217.151 355.573 217.151 358.575Z" fill="black"/>
<path d="M53.7765 364.015H183.287C186.288 364.015 188.723 361.58 188.723 358.578C188.723 355.577 186.288 353.142 183.287 353.142H53.7765C50.7752 353.142 48.3402 355.577 48.3402 358.578C48.3402 361.582 50.7752 364.015 53.7765 364.015Z" fill="black"/>
<path d="M684.372 580.538C684.45 580.381 684.528 580.225 684.591 580.063C684.655 579.895 684.702 579.726 684.749 579.552C684.796 579.387 684.84 579.222 684.872 579.05C684.905 578.856 684.919 578.66 684.932 578.464C684.941 578.346 684.968 578.234 684.968 578.114V90.6563C684.968 87.655 682.533 85.22 679.531 85.22H619.531V16.8228C619.531 14.6086 618.186 12.6129 616.133 11.7834C613.406 10.6797 548.403 -14.8899 468.013 12.9519C400.01 36.4987 355.296 94.718 341.984 113.961C326.224 97.4489 298.037 85.2228 274.101 85.2228L5.4895 85.2206C2.48817 85.2206 0.0532227 87.6555 0.0532227 90.6568V578.114C0.0532227 578.235 0.0799805 578.346 0.0888997 578.464C0.100049 578.661 0.113428 578.857 0.149106 579.051C0.178093 579.222 0.224918 579.387 0.271743 579.552C0.318569 579.724 0.365394 579.896 0.430058 580.063C0.494722 580.228 0.570535 580.382 0.648579 580.538C0.726623 580.696 0.806894 580.852 0.900551 581.006C0.994201 581.156 1.10123 581.294 1.20826 581.432C1.3153 581.57 1.42009 581.709 1.54274 581.838C1.67653 581.979 1.82146 582.103 1.96863 582.23C2.06006 582.309 2.13587 582.4 2.23398 582.474C14.2437 591.442 19.6444 600.43 18.7459 609.952C18.6032 611.475 19.1071 612.989 20.1373 614.121C21.1675 615.254 22.628 615.899 24.1577 615.899H342.494H342.503H342.505H342.508H342.517H412.478C413.102 618.171 413.762 620.416 414.485 622.588C426.989 659.873 458.338 683.011 459.667 683.976C460.633 684.678 461.75 685.017 462.86 685.017C464.537 685.017 466.192 684.243 467.258 682.78C469.026 680.357 468.493 676.958 466.069 675.188C465.773 674.969 436.165 653.041 424.795 619.141C423.731 615.95 422.773 612.601 421.943 609.183C421.934 609.145 421.914 609.112 421.905 609.076C419.651 599.798 418.077 589.251 417.232 577.722C415.949 560.265 416.687 545.229 417.042 539.824C429.089 531.023 441.499 523.638 454.021 517.816C464.832 530.508 471.648 546.19 473.318 562.39C474.433 573.356 476.186 582.598 478.525 589.854C486.193 613.686 503.572 629.195 504.31 629.844C505.343 630.754 506.623 631.2 507.898 631.2C509.403 631.2 510.9 630.578 511.974 629.362C513.959 627.115 513.747 623.681 511.504 621.691C511.346 621.551 495.599 607.421 488.873 586.523C486.766 579.99 485.172 571.501 484.133 561.284C482.088 541.458 473.287 522.34 459.355 507.46C458.755 506.816 458.14 506.171 457.531 505.563C442.738 490.612 431.342 472.071 424.575 451.944C420.275 439.196 417.809 425.864 417.245 412.32C416.815 401.887 422.151 392.134 431.174 386.865C435.32 384.443 440.007 383.163 444.727 383.163C455.47 383.163 465.293 389.636 469.75 399.651C474.259 409.803 479.062 419.735 484.026 429.164C497.376 454.564 512.456 477.313 528.845 496.78C543.335 513.994 559.247 529.065 576.138 541.57C578.55 543.356 581.955 542.848 583.741 540.435C585.527 538.022 585.019 534.619 582.606 532.832C569.294 522.976 556.616 511.421 544.782 498.437C584.606 498.501 611.769 509.198 612.06 509.314C612.716 509.579 613.407 509.708 614.096 509.708C615.164 509.708 616.225 509.394 617.135 508.779C618.634 507.769 619.53 506.081 619.53 504.272L619.537 349.782C626.692 355.994 636.842 368.526 640.816 391.553C643.826 409.037 640.39 475.117 631.138 577.622C630.119 588.894 629.1 599.771 628.137 609.941C624.391 649.402 621.285 678.703 621.253 678.995C620.937 681.98 623.1 684.658 626.085 684.975C626.281 684.995 626.473 685.006 626.667 685.006C629.41 685.006 631.769 682.935 632.066 680.143C632.095 679.862 634.955 652.904 638.494 615.89H660.866C662.395 615.89 663.856 615.246 664.886 614.113C665.916 612.98 666.423 611.466 666.278 609.943C665.379 600.422 670.782 591.433 682.79 582.465C682.888 582.391 682.963 582.3 683.055 582.222C683.202 582.095 683.349 581.972 683.481 581.83C683.603 581.7 683.708 581.564 683.815 581.424C683.922 581.285 684.029 581.147 684.123 580.998C684.217 580.851 684.295 580.695 684.375 580.536L684.372 580.538ZM406.045 572.914C394.444 573.817 382.043 577.322 370.747 582.545C379.979 572.018 391.748 560.01 405.758 548.54C405.572 554.9 405.539 563.379 406.045 572.914ZM10.9259 96.0913H274.103C299.266 96.0913 325.835 110.755 337.077 124.834V596.73C320.815 582.64 295.725 572.675 274.103 572.675L10.9259 572.677V96.0913ZM608.645 496.656C596.37 492.866 569.896 486.406 535.482 487.726C521.552 470.886 508.608 451.561 496.919 430.163C520.312 424.263 546.252 419.928 574.204 417.301C576.996 417.038 579.13 414.695 579.13 411.89V307.998C579.13 307.911 579.108 307.829 579.103 307.744C579.099 307.659 579.112 307.577 579.105 307.49C579.096 307.392 579.063 307.3 579.05 307.202C579.023 307.015 578.987 306.832 578.94 306.651C578.896 306.48 578.844 306.312 578.784 306.149C578.724 305.984 578.657 305.822 578.584 305.663C578.505 305.498 578.419 305.34 578.325 305.184C578.24 305.044 578.149 304.907 578.053 304.776C577.941 304.624 577.823 304.482 577.696 304.346C577.589 304.227 577.478 304.114 577.359 304.007C577.221 303.88 577.078 303.761 576.927 303.65C576.797 303.554 576.666 303.465 576.528 303.38C576.369 303.282 576.207 303.195 576.037 303.115C575.89 303.043 575.741 302.981 575.587 302.921C575.411 302.854 575.23 302.8 575.045 302.751C574.882 302.709 574.721 302.675 574.554 302.649C574.365 302.62 574.175 302.602 573.981 302.591C573.883 302.586 573.792 302.562 573.694 302.562C573.607 302.562 573.526 302.584 573.442 302.588C573.357 302.593 573.272 302.58 573.187 302.586C486.535 310.709 421.009 334.263 372.848 374.591C372.788 374.642 372.745 374.705 372.687 374.756C372.547 374.885 372.415 375.021 372.288 375.164C372.174 375.291 372.063 375.421 371.962 375.557C371.855 375.702 371.764 375.851 371.673 376.005C371.583 376.156 371.496 376.306 371.423 376.462C371.347 376.62 371.289 376.783 371.229 376.95C371.171 377.118 371.115 377.283 371.073 377.456C371.033 377.621 371.006 377.789 370.979 377.958C370.95 378.148 370.93 378.335 370.921 378.525C370.919 378.603 370.899 378.676 370.899 378.754V482.646C370.899 484.757 372.121 486.677 374.034 487.572C374.77 487.915 375.553 488.082 376.333 488.082C377.584 488.082 378.824 487.65 379.823 486.813C390.965 477.488 403.274 468.99 416.474 461.498C423.295 479.201 433.461 495.594 446.24 509.46C433.385 515.703 420.682 523.476 408.391 532.659C379.829 553.965 359.25 578.2 347.934 593.213V124.599C354.474 114.62 400.335 47.8899 471.559 23.2242C537.89 0.255041 594.494 15.9638 608.651 20.6599V496.655L608.645 496.656ZM619.518 336.355V288.804H630.689C633.691 288.804 636.126 286.369 636.126 283.368C636.126 280.366 633.691 277.931 630.689 277.931H619.518V214.318H637.361C640.363 214.318 642.797 211.883 642.797 208.882C642.797 205.88 640.363 203.445 637.361 203.445H619.518V152.472H647.295C650.296 152.472 652.731 150.037 652.731 147.035C652.731 144.034 650.296 141.599 647.295 141.599H619.518V96.0882L674.08 96.0904V572.673H642.476C651.666 469.838 654.707 408.268 651.512 389.704C645.607 355.496 627.104 340.976 619.518 336.351V336.355Z" fill="black"/>
<path d="M539.055 259.044C468.974 269.73 414.608 291.923 372.845 326.893C370.544 328.82 370.241 332.249 372.168 334.551C373.245 335.835 374.785 336.497 376.337 336.497C377.568 336.497 378.806 336.082 379.825 335.228C420.015 301.571 472.637 280.168 540.691 269.788C543.659 269.335 545.697 266.564 545.245 263.596C544.794 260.63 542.025 258.59 539.055 259.042L539.055 259.044Z" fill="black"/>
<path d="M372.172 286.85C373.247 288.134 374.79 288.796 376.342 288.796C377.572 288.796 378.81 288.381 379.829 287.527C402.225 268.777 429.193 253.523 459.985 242.188C462.802 241.152 464.247 238.025 463.21 235.209C462.171 232.393 459.049 230.948 456.23 231.984C424.261 243.753 396.207 259.635 372.849 279.19C370.545 281.118 370.242 284.548 372.168 286.849L372.172 286.85Z" fill="black"/>
<path d="M539.055 211.357C523.448 213.736 508.457 216.724 494.501 220.238C491.591 220.972 489.825 223.927 490.556 226.837C491.178 229.303 493.39 230.946 495.823 230.946C496.262 230.946 496.708 230.893 497.154 230.781C510.774 227.35 525.424 224.431 540.69 222.105C543.657 221.652 545.698 218.881 545.245 215.913C544.795 212.945 542.03 210.911 539.055 211.357Z" fill="black"/>
<path d="M379.827 239.841C420.017 206.185 472.639 184.778 540.693 174.401C543.661 173.948 545.699 171.177 545.247 168.209C544.794 165.243 542.033 163.203 539.054 163.655C468.973 174.339 414.607 196.532 372.845 231.505C370.544 233.431 370.24 236.861 372.167 239.162C373.244 240.446 374.785 241.108 376.337 241.108C377.572 241.108 378.809 240.691 379.826 239.84L379.827 239.841Z" fill="black"/>
<path d="M539.055 115.971C469.002 126.638 414.636 148.827 372.845 183.808C370.544 185.735 370.239 189.164 372.165 191.466C373.242 192.75 374.783 193.412 376.335 193.412C377.566 193.412 378.804 192.997 379.82 192.143C420.037 158.477 472.655 137.078 540.687 126.72C543.655 126.267 545.695 123.496 545.242 120.528C544.794 117.56 542.029 115.531 539.055 115.974L539.055 115.971Z" fill="black"/>
<path d="M376.339 145.728C377.572 145.728 378.81 145.311 379.826 144.457C388.779 136.953 398.537 129.952 408.828 123.644C411.387 122.076 412.19 118.729 410.623 116.169C409.053 113.607 405.708 112.805 403.148 114.374C392.4 120.959 382.205 128.277 372.843 136.124C370.541 138.053 370.238 141.48 372.169 143.781C373.246 145.068 374.787 145.728 376.339 145.728Z" fill="black"/>
<path d="M443.811 105.096C444.516 105.096 445.234 104.958 445.925 104.666C473.392 93.055 505.275 84.428 540.695 79.0205C543.663 78.5679 545.701 75.794 545.248 72.8258C544.796 69.8577 542.022 67.8177 539.054 68.2725C502.746 73.8136 469.989 82.6884 441.692 94.649C438.927 95.8175 437.634 99.0061 438.803 101.773C439.683 103.849 441.697 105.095 443.815 105.095L443.811 105.096Z" fill="black"/>
</g>
<defs>
<clipPath id="clip0_27_347">
<rect width="685" height="685" fill="white"/>
</clipPath>
</defs>
</svg>
