<svg width="289" height="110" viewBox="0 0 289 110" fill="none" xmlns="http://www.w3.org/2000/svg">
<path d="M137.9 26.9143L138.167 26.6469H141.379L141.646 26.9143C141.111 30.6573 138.167 32.7962 133.797 32.7962C127.91 32.7962 124.609 28.7858 124.609 23.0821C124.609 17.4675 127.82 13.368 133.797 13.368C138.078 13.368 141.111 15.5069 141.646 18.9825L141.379 19.2499H138.167L137.9 18.9825C137.365 17.3784 136.027 16.5763 133.886 16.5763C130.14 16.5763 128.534 19.2499 128.534 22.993C128.534 26.736 130.14 29.4096 133.886 29.4096C136.027 29.5879 137.365 28.7858 137.9 26.9143Z" fill="black"/>
<path d="M158.236 32.5285H146.105L145.838 32.2612V13.9915L146.105 13.7241H149.317L149.584 13.9915V29.0528L149.852 29.3202H158.236L158.504 29.5875V32.2612L158.236 32.5285Z" fill="black"/>
<path d="M175.006 32.5285H162.34L162.072 32.2612V13.9915L162.34 13.7241H175.006L175.273 13.9915V16.6651L175.006 16.9325H166.086L165.819 17.1998V21.032L166.086 21.2994H174.471L174.738 21.5667V24.2403L174.471 24.5077H166.086L165.819 24.775V29.0528L166.086 29.3202H175.006L175.273 29.5875V32.2612L175.006 32.5285Z" fill="black"/>
<path d="M189.01 32.2612L188.743 32.5285H185.264L184.996 32.2612L179.109 16.6651V13.9915L179.377 13.7241H181.785L182.053 13.9915L186.87 27.1813H187.137L191.954 13.9915L192.221 13.7241H194.63L194.897 13.9915V16.6651L189.01 32.2612Z" fill="black"/>
<path d="M212.023 32.5285H199.357L199.09 32.2612V13.9915L199.357 13.7241H212.023L212.291 13.9915V16.6651L212.023 16.9325H203.104L202.836 17.1998V21.032L203.104 21.2994H211.488L211.756 21.5667V24.2403L211.488 24.5077H203.104L202.836 24.775V29.0528L203.104 29.3202H212.023L212.291 29.5875V32.2612L212.023 32.5285Z" fill="black"/>
<path d="M229.238 32.5285H217.107L216.84 32.2612V13.9915L217.107 13.7241H220.319L220.586 13.9915V29.0528L220.854 29.3202H229.238L229.506 29.5875V32.2612L229.238 32.5285Z" fill="black"/>
<path d="M249.039 32.5285H246.631L246.363 32.2612L245.025 28.7855L244.49 28.5181H237.711L237.176 28.7855L235.838 32.2612L235.57 32.5285H233.162L232.895 32.2612V29.5875L239.049 13.9915L239.317 13.7241H242.795L243.063 13.9915L249.218 29.5875V32.2612L249.039 32.5285ZM241.19 18.5366H240.922L238.514 24.9533L238.782 25.2206H243.331L243.598 24.9533L241.19 18.5366Z" fill="black"/>
<path d="M253.322 13.7241H257.069L257.604 13.9915L264.918 26.3792H265.186V13.9915L265.453 13.7241H268.664L268.932 13.9915V32.2612L268.664 32.5285H264.918L264.383 32.2612L257.069 19.8734H256.801V32.2612L256.533 32.5285H253.322L253.055 32.2612V13.9915L253.322 13.7241Z" fill="black"/>
<path d="M279.813 32.5285H273.926L273.658 32.2612V13.9915L273.926 13.7241H279.813C286.592 13.7241 289 17.1998 289 23.1709C289 29.1419 286.592 32.5285 279.813 32.5285ZM280.08 16.9325H277.672L277.405 17.1998V29.0528L277.672 29.3202H280.08C283.827 29.3202 285.165 27.4487 285.165 23.1709C285.165 18.8931 283.916 16.9325 280.08 16.9325Z" fill="black"/>
<path d="M134.956 57.5715H129.871L129.604 57.8389V64.8794L129.336 65.1467H126.125L125.857 64.8794V46.5206L126.125 46.2532H135.045C138.791 46.2532 141.467 48.1247 141.467 51.8678C141.467 55.7 138.702 57.5715 134.956 57.5715ZM134.956 49.4615H129.871L129.604 49.7289V54.0067L129.871 54.274H134.956C136.561 54.274 137.631 53.7393 137.631 51.8678C137.631 49.9963 136.561 49.4615 134.956 49.4615Z" fill="black"/>
<path d="M160.289 57.8388C160.289 62.6513 157.613 65.4141 152.707 65.4141C147.801 65.4141 145.125 62.7405 145.125 57.8388V46.5206L145.393 46.2532H148.604L148.871 46.5206V57.8388C148.871 60.5125 149.942 62.1166 152.618 62.1166C155.294 62.1166 156.364 60.5125 156.364 57.8388V46.5206L156.631 46.2532H159.843L160.11 46.5206V57.8388H160.289Z" fill="black"/>
<path d="M174.471 65.0576H165.283L165.016 64.7902V46.5206L165.283 46.2532H173.935C176.611 46.2532 179.287 47.59 179.287 51.0657C179.287 52.9372 178.484 54.5414 176.611 55.0761V55.3435C178.752 55.8782 179.822 57.4824 179.822 59.8886C179.822 63.7208 177.146 65.0576 174.471 65.0576ZM173.311 49.4615H169.03L168.762 49.7289V53.472L169.03 53.7393H173.311C174.917 53.7393 175.452 52.6699 175.452 51.6004C175.541 50.2636 175.006 49.4615 173.311 49.4615ZM173.311 57.0368H169.03L168.762 57.3041V61.5819L169.03 61.8493H173.311C175.184 61.8493 175.987 61.0472 175.987 59.443C176.076 57.8388 175.273 57.0368 173.311 57.0368Z" fill="black"/>
<path d="M196.502 65.0576H184.371L184.104 64.7902V46.5206L184.371 46.2532H187.582L187.85 46.5206V61.5819L188.117 61.8493H196.502L196.77 62.1166V64.7902L196.502 65.0576Z" fill="black"/>
<path d="M204.174 65.0576H200.963L200.695 64.7902V46.5206L200.963 46.2532H204.174L204.442 46.5206V64.7902L204.174 65.0576Z" fill="black"/>
<path d="M222.013 59.4432L222.281 59.1758H225.492L225.759 59.4432C225.224 63.1862 222.281 65.3251 217.91 65.3251C212.023 65.3251 208.723 61.3147 208.723 55.611C208.723 49.9964 211.934 45.8969 217.91 45.8969C222.191 45.8969 225.224 48.0358 225.759 51.5115L225.492 51.7788H222.281L222.013 51.5115C221.478 49.9073 220.14 49.1052 217.999 49.1052C214.253 49.1052 212.647 51.7788 212.647 55.5219C212.647 59.2649 214.253 61.9385 217.999 61.9385C220.051 62.1168 221.478 61.3147 222.013 59.4432Z" fill="black"/>
<path d="M138.168 97.5866H126.037L125.77 97.3192V79.0495L126.037 78.7822H129.248L129.516 79.0495V94.1109L129.783 94.3782H138.168L138.436 94.6456V97.3192L138.168 97.5866Z" fill="black"/>
<path d="M146.018 97.5866H142.807L142.539 97.3192V79.0495L142.807 78.7822H146.018L146.285 79.0495V97.3192L146.018 97.5866Z" fill="black"/>
<path d="M160.824 97.5866H151.637L151.369 97.3192V79.0495L151.637 78.7822H160.289C162.965 78.7822 165.641 80.119 165.641 83.5947C165.641 85.4662 164.838 87.0704 162.965 87.6051V87.8724C165.106 88.4072 166.176 90.0113 166.176 92.4176C166.265 96.2498 163.589 97.5866 160.824 97.5866ZM159.754 81.9905H155.472L155.205 82.2579V86.0009L155.472 86.2683H159.754C161.359 86.2683 161.894 85.1988 161.894 84.1294C161.894 82.7926 161.359 81.9905 159.754 81.9905ZM159.754 89.5657H155.472L155.205 89.8331V94.1109L155.472 94.3782H159.754C161.627 94.3782 162.43 93.5761 162.43 91.972C162.43 90.3678 161.627 89.5657 159.754 89.5657Z" fill="black"/>
<path d="M182.141 89.8331V90.1004L185.62 94.6456V97.3192L185.352 97.5866H183.747L183.212 97.3192L177.86 90.2787L177.325 90.0113H174.649L174.381 90.2787V97.3192L174.113 97.5866H170.902L170.635 97.3192V79.0495L170.902 78.7822H179.822C183.568 78.7822 186.244 80.6537 186.244 84.3968C186.155 87.3377 184.282 89.2984 182.141 89.8331ZM179.733 81.9905H174.649L174.381 82.2579V86.5356L174.649 86.803H179.733C181.338 86.803 182.409 86.2683 182.409 84.3968C182.409 82.5252 181.338 81.9905 179.733 81.9905Z" fill="black"/>
<path d="M205.602 97.5866H203.193L202.926 97.3192L201.588 93.8435L201.053 93.5761H194.274L193.739 93.8435L192.401 97.3192L192.133 97.5866H189.725L189.457 97.3192V94.6456L195.612 79.0495L195.879 78.7822H199.358L199.626 79.0495L205.78 94.6456V97.3192L205.602 97.5866ZM197.842 83.5947H197.574L195.166 90.0113L195.433 90.2787H199.982L200.25 90.0113L197.842 83.5947Z" fill="black"/>
<path d="M221.21 89.8331V90.1004L224.688 94.6456V97.3192L224.421 97.5866H222.815L222.28 97.3192L216.928 90.2787L216.393 90.0113H213.717L213.449 90.2787V97.3192L213.182 97.5866H209.971L209.703 97.3192V79.0495L209.971 78.7822H218.89C222.637 78.7822 225.313 80.6537 225.313 84.3968C225.313 87.3377 223.44 89.2984 221.21 89.8331ZM218.801 81.9905H213.717L213.449 82.2579V86.5356L213.717 86.803H218.801C220.407 86.803 221.477 86.2683 221.477 84.3968C221.477 82.5252 220.407 81.9905 218.801 81.9905Z" fill="black"/>
<path d="M237.444 90.6352V97.4083L237.176 97.6757H233.965L233.698 97.4083V90.6352L228.346 81.7231V79.0495L228.613 78.7822H230.486L231.022 79.0495L235.303 86.3574H235.838L240.12 79.0495L240.655 78.7822H242.528L242.796 79.0495V81.7231L237.444 90.6352Z" fill="black"/>
<path d="M54.9453 0L67.7006 5.07986L55.0345 10.5162L42.2793 5.34722L54.9453 0Z" fill="black"/>
<path d="M54.9453 99.2798L67.7006 104.449L55.0345 109.796L42.2793 104.716L54.9453 99.2798Z" fill="black"/>
<path d="M16.0563 16.0415L28.7223 10.6943L23.5489 23.4385L10.8828 28.7858L16.0563 16.0415Z" fill="black"/>
<path d="M86.344 86.3576L99.0993 81.0104L93.9258 93.7546L81.2598 99.1018L86.344 86.3576Z" fill="black"/>
<path d="M0 54.8978L5.17346 42.1536L10.5253 54.8978L5.35185 67.642L0 54.8978Z" fill="black"/>
<path d="M99.4551 54.8977L104.629 42.1535L109.98 54.8977L104.807 67.6419L99.4551 54.8977Z" fill="black"/>
<path d="M16.1448 93.7545L10.793 81.0994L23.5482 86.2683L28.9001 98.9234L16.1448 93.7545Z" fill="black"/>
<path d="M86.4319 23.5279L81.0801 10.8728L93.8353 16.0418L99.1872 28.6969L86.4319 23.5279Z" fill="black"/>
<path d="M70.5541 17.4677L76.7088 24.6865L72.0705 35.8265L65.9159 28.6078L56.4609 29.3207L61.0992 18.1807L70.5541 17.4677Z" fill="black"/>
<path d="M39.4261 92.3286L33.2715 85.1099L37.9098 73.9698L44.0644 81.1886L53.5193 80.4756L48.881 91.6157L39.4261 92.3286Z" fill="black"/>
<path d="M39.514 17.3782L48.9689 18.1803L53.518 29.3203L44.0631 28.5182L37.9084 35.8261L33.3594 24.6861L39.514 17.3782Z" fill="black"/>
<path d="M70.4649 92.4177L61.01 91.6157L56.4609 80.4756L65.9159 81.2777L71.9813 73.9698L76.6196 85.1099L70.4649 92.4177Z" fill="black"/>
<path d="M17.4824 39.3019L24.7074 33.2417L35.8571 37.876L28.6321 43.9361L29.4349 53.3829L18.2852 48.8378L17.4824 39.3019Z" fill="black"/>
<path d="M92.4977 70.494L85.2727 76.5542L74.123 71.9199L81.348 65.8597L80.5453 56.413L91.695 60.9581L92.4977 70.494Z" fill="black"/>
<path d="M17.4824 70.405L18.2852 60.9582L29.4349 56.324L28.6321 65.7707L35.8571 71.92L24.7074 76.5543L17.4824 70.405Z" fill="black"/>
<path d="M92.4977 39.391L91.695 48.8378L80.5453 53.472L81.348 44.0253L74.123 37.876L85.2727 33.2417L92.4977 39.391Z" fill="black"/>
</svg>
