<?xml version="1.0" encoding="utf-8"?>
<!-- Generator: Adobe Illustrator 28.2.0, SVG Export Plug-In . SVG Version: 6.00 Build 0)  -->
<svg version="1.1" id="Layer_1" xmlns="http://www.w3.org/2000/svg" xmlns:xlink="http://www.w3.org/1999/xlink" x="0px" y="0px"
	 viewBox="0 0 251 251" style="enable-background:new 0 0 251 251;" xml:space="preserve">
<style type="text/css">
	.st0{display:none;}
</style>
<path d="M205.4,167c-0.7-6.8-2.1-13.5-4.1-20c-2.2-5.5-4.8-10.8-7.9-15.8c-5.1-8.3-11.3-15.9-18.4-22.4V49.4h22.8c2,0,4-0.8,5.4-2.2
	c1.4-1.4,2.2-3.4,2.2-5.4v-19c0-5-2-9.9-5.6-13.4c-3.6-3.6-8.4-5.6-13.4-5.6H64.7c-5,0-9.9,2-13.4,5.6c-3.6,3.6-5.6,8.4-5.6,13.4
	v159.7c0,2,0.8,4,2.2,5.4c1.4,1.4,3.4,2.2,5.4,2.2h67.8c-1.1,18.2,0.3,36.4,4.4,54.1c0.2,0.9,0.7,1.6,1.4,2.1
	c0.7,0.5,1.5,0.8,2.4,0.8h57c0.9,0,1.9-0.3,2.6-1c0.7-0.6,1.1-1.5,1.2-2.4c0.8-7.5,2.1-15,3.8-22.4c2-8.3,4.5-16.5,7.6-24.5
	C205.1,187.4,206.4,177.1,205.4,167L205.4,167z M197.8,22.8v19h-22.8v-19c0-4.1,2.2-7.8,5.7-9.9c3.5-2,7.9-2,11.4,0
	C195.6,15,197.8,18.7,197.8,22.8z M126.5,122.1c-3,2.9-4.7,6.9-4.8,11v49.4H53.2V22.8c0-3,1.2-5.9,3.3-8.1c2.1-2.1,5-3.3,8.1-3.3
	h106.5c-2.5,3.3-3.8,7.3-3.8,11.4v155.3c0.1,2-0.7,4-2,5.5c-1.3,1.5-3.2,2.5-5.2,2.7c-2.1,0.1-4.1-0.6-5.7-2.1
	c-1.5-1.4-2.4-3.4-2.4-5.5v-45c0.1-4-1.4-7.8-4.1-10.8c-2.7-2.9-6.4-4.8-10.4-5.1C133.5,117.7,129.5,119.2,126.5,122.1L126.5,122.1z
	 M194.2,194.3c-3.1,8.3-5.7,16.9-7.6,25.6c-1.6,6.5-2.8,13.1-3.7,19.7h-50.6c-1.3-6.4-2.4-12.9-3-19.4c-1.3-12.4-1.3-24.9,0-37.3
	c0-0.1,0-0.3,0-0.4v-49.4c0-2.1,0.8-4.1,2.4-5.5c1.5-1.4,3.6-2.2,5.7-2.1c2,0.2,3.9,1.2,5.2,2.7c1.3,1.5,2,3.5,2,5.5v45
	c0,4.2,1.7,8.2,4.7,11s7.1,4.4,11.3,4.2c4-0.3,7.7-2.1,10.4-5.1c2.7-3,4.1-6.8,4.1-10.8v-58.8c8.1,8.8,14.6,19,19,30.1
	c1.9,6,3.2,12.2,3.8,18.4c0.9,8.9-0.4,18-3.5,26.4V194.3z"/>
<path class="st0" d="M110.3,91.3c9.1,0,17.8-3.6,24.2-10c6.4-6.4,10-15.1,10-24.2s-3.6-17.8-10-24.2c-6.4-6.4-15.1-10-24.2-10
	c-9.1,0-17.8,3.6-24.2,10c-6.4,6.4-10,15.1-10,24.2c0,9.1,3.6,17.8,10,24.2C92.5,87.7,101.2,91.3,110.3,91.3z M98.9,81v-1.2
	c0-4.1,2.2-7.8,5.7-9.9c3.5-2,7.9-2,11.4,0c3.5,2,5.7,5.8,5.7,9.9V81C114.5,84.5,106.1,84.5,98.9,81z M104.6,55.1c0-1.5,0.6-3,1.7-4
	c1.1-1.1,2.5-1.7,4-1.7s3,0.6,4,1.7c1.1,1.1,1.7,2.5,1.7,4c0,1.5-0.6,3-1.7,4c-1.1,1.1-2.5,1.7-4,1.7s-3-0.6-4-1.7
	C105.2,58.1,104.6,56.7,104.6,55.1z M110.3,30.4c7.1,0,13.9,2.8,18.9,7.9s7.8,11.8,7.7,18.9c0,7.1-2.9,13.9-8,18.8
	c-1.1-5.1-4.2-9.5-8.6-12.2c2.1-2.4,3.3-5.5,3.3-8.6c0-4.8-2.5-9.1-6.7-11.5c-4.1-2.4-9.2-2.4-13.3,0C99.5,46,97,50.4,97,55.2
	c0,3.2,1.2,6.2,3.3,8.6c-4.4,2.7-7.5,7.2-8.6,12.2c-5.1-5-7.9-11.7-8-18.8c0-7.1,2.7-13.9,7.7-18.9C96.4,33.3,103.2,30.4,110.3,30.4
	L110.3,30.4z"/>
<path d="M68.5,110.3h22.8c1.4,0,2.6-0.7,3.3-1.9c0.7-1.2,0.7-2.6,0-3.8c-0.7-1.2-1.9-1.9-3.3-1.9H68.5c-1.4,0-2.6,0.7-3.3,1.9
	c-0.7,1.2-0.7,2.6,0,3.8C65.8,109.6,67.1,110.3,68.5,110.3z"/>
<path d="M68.5,90.4h79.8c1.4,0,2.6-0.7,3.3-1.9c0.7-1.2,0.7-2.6,0-3.8c-0.7-1.2-1.9-1.9-3.3-1.9H68.5c-1.4,0-2.6,0.7-3.3,1.9
	c-0.7,1.2-0.7,2.6,0,3.8C65.8,89.7,67.1,90.4,68.5,90.4z"/>
<path d="M68.5,72h79.8c1.4,0,2.6-0.7,3.3-1.9c0.7-1.2,0.7-2.6,0-3.8c-0.7-1.2-1.9-1.9-3.3-1.9H68.5c-1.4,0-2.6,0.7-3.3,1.9
	c-0.7,1.2-0.7,2.6,0,3.8C65.8,71.2,67.1,72,68.5,72z"/>
<path d="M68.5,53.5h79.8c1.4,0,2.6-0.7,3.3-1.9c0.7-1.2,0.7-2.6,0-3.8c-0.7-1.2-1.9-1.9-3.3-1.9H68.5c-1.4,0-2.6,0.7-3.3,1.9
	c-0.7,1.2-0.7,2.6,0,3.8C65.8,52.8,67.1,53.5,68.5,53.5z"/>
<path d="M68.5,35.1h49.8c1.4,0,2.6-0.7,3.3-1.9c0.7-1.2,0.7-2.6,0-3.8c-0.7-1.2-1.9-1.9-3.3-1.9H68.5c-1.4,0-2.6,0.7-3.3,1.9
	c-0.7,1.2-0.7,2.6,0,3.8C65.8,34.4,67.1,35.1,68.5,35.1z"/>
<path d="M152.1,106.5c0-1-0.4-2-1.1-2.7c-0.7-0.7-1.7-1.1-2.7-1.1h-38c-1.4,0-2.6,0.7-3.3,1.9c-0.7,1.2-0.7,2.6,0,3.8
	c0.7,1.2,1.9,1.9,3.3,1.9h38c1,0,2-0.4,2.7-1.1C151.7,108.5,152.1,107.5,152.1,106.5L152.1,106.5z"/>
<path d="M68.5,125.5h7.6c1.4,0,2.6-0.7,3.3-1.9c0.7-1.2,0.7-2.6,0-3.8c-0.7-1.2-1.9-1.9-3.3-1.9h-7.6c-1.4,0-2.6,0.7-3.3,1.9
	c-0.7,1.2-0.7,2.6,0,3.8C65.8,124.8,67.1,125.5,68.5,125.5z"/>
<path d="M106.5,117.9H91.3c-1.4,0-2.6,0.7-3.3,1.9c-0.7,1.2-0.7,2.6,0,3.8c0.7,1.2,1.9,1.9,3.3,1.9h15.2c1.4,0,2.6-0.7,3.3-1.9
	c0.7-1.2,0.7-2.6,0-3.8C109.1,118.6,107.8,117.9,106.5,117.9z"/>
<path d="M68.5,140.7h19c1.4,0,2.6-0.7,3.3-1.9c0.7-1.2,0.7-2.6,0-3.8c-0.7-1.2-1.9-1.9-3.3-1.9h-19c-1.4,0-2.6,0.7-3.3,1.9
	c-0.7,1.2-0.7,2.6,0,3.8C65.8,140,67.1,140.7,68.5,140.7z"/>
<path d="M98.9,148.3H68.5c-1.4,0-2.6,0.7-3.3,1.9c-0.7,1.2-0.7,2.6,0,3.8c0.7,1.2,1.9,1.9,3.3,1.9h30.4c1.4,0,2.6-0.7,3.3-1.9
	c0.7-1.2,0.7-2.6,0-3.8C101.5,149,100.2,148.3,98.9,148.3z"/>
</svg>
