<?xml version="1.0" encoding="utf-8"?>
<!-- Generator: Adobe Illustrator 28.2.0, SVG Export Plug-In . SVG Version: 6.00 Build 0)  -->
<svg version="1.1" id="Layer_1" xmlns="http://www.w3.org/2000/svg" xmlns:xlink="http://www.w3.org/1999/xlink" x="0px" y="0px"
	 viewBox="0 0 251 251" style="enable-background:new 0 0 251 251;" xml:space="preserve">
<style type="text/css">
	.st0{fill:none;stroke:#000000;stroke-width:7.7658;stroke-miterlimit:10;}
	.st1{fill:none;stroke:#000000;stroke-width:7.7658;stroke-linecap:round;stroke-linejoin:round;stroke-miterlimit:10;}
	.st2{fill:none;stroke:#000000;stroke-width:7.7658;stroke-linecap:round;stroke-miterlimit:10;}
	.st3{fill:none;stroke:#000000;stroke-width:7.7658;stroke-linecap:round;stroke-miterlimit:10;stroke-dasharray:10.6574,17.7623;}
	.st4{display:none;}
	.st5{display:inline;}
</style>
<g>
	<g>
		<path class="st0" d="M165.3,62.3l-34.7,10.2c-2,0.6-4.2-0.6-4.8-2.6l-4.5-15.3c-0.6-2-2.8-3.2-4.8-2.6l-11.2,3.3
			c-2,0.6-3.2,2.8-2.6,4.8l15.9,54c0.6,2,2.8,3.2,4.8,2.6l11.2-3.3c2-0.6,3.2-2.8,2.6-4.8l-5.3-18c-0.6-2,0.6-4.2,2.6-4.8l34.7-10.2
			c3.7-1.1,5.7-4.9,4.7-8.6v0C172.8,63.3,169,61.2,165.3,62.3z"/>
		<path class="st0" d="M120.1,56.3l40.3-11.8c14.4-4.2,29.5,4,33.7,18.4l5.4,18.4c1.2,4-1.1,8.2-5.1,9.4l-59,17.4"/>
		<path class="st0" d="M239.8,172.1l-58.6,17.2c-1.8,0.5-3.6-0.5-4.1-2.3l-2.3-7.7c-2.4-8.1,2.2-16.6,10.3-18.9l47.2-13.9
			c1.8-0.5,3.6,0.5,4.1,2.3L242,168C242.6,169.8,241.5,171.6,239.8,172.1z"/>
		<line class="st0" x1="153.4" y1="104.8" x2="189.4" y2="158.3"/>
		<path class="st0" d="M180.8,94.1c0,0,22.5,11.9,33.4,28.4c10.9,16.5,12.3,24.9,12.3,24.9"/>
	</g>
	<g>
		<line class="st1" x1="32.7" y1="156" x2="32.7" y2="199.1"/>
		<line class="st1" x1="79.6" y1="156" x2="79.6" y2="199.1"/>
		<g>
			<line class="st1" x1="47.4" y1="156" x2="47.4" y2="178.5"/>
			<line class="st1" x1="47.4" y1="190.5" x2="47.4" y2="199.1"/>
		</g>
		<g>
			<line class="st1" x1="62" y1="156" x2="62" y2="178.5"/>
			<line class="st1" x1="62" y1="190.5" x2="62" y2="199.1"/>
		</g>
		<line class="st1" x1="129.9" y1="156" x2="129.9" y2="199.1"/>
		<g>
			<line class="st1" x1="97.7" y1="156" x2="97.7" y2="178.5"/>
			<line class="st1" x1="97.7" y1="190.5" x2="97.7" y2="199.1"/>
		</g>
		<g>
			<line class="st1" x1="112.4" y1="156" x2="112.4" y2="178.5"/>
			<line class="st1" x1="112.4" y1="190.5" x2="112.4" y2="199.1"/>
		</g>
	</g>
	<path class="st0" d="M141,213.2H21.6c-5.4,0-9.9-4.4-9.9-9.9v-51.6c0-5.4,4.4-9.9,9.9-9.9H141c5.4,0,9.9,4.4,9.9,9.9v51.6
		C150.9,208.8,146.5,213.2,141,213.2z"/>
	<g>
		<g>
			<line class="st2" x1="94.3" y1="94.8" x2="88.7" y2="96.9"/>
			<line class="st3" x1="72" y1="103" x2="53.6" y2="109.6"/>
			<line class="st2" x1="45.3" y1="112.7" x2="39.7" y2="114.7"/>
		</g>
	</g>
</g>
<g class="st4">
	<g class="st5">
		<g>
			<path class="st1" d="M14.9,152v-21c0-2.9,2.3-5.2,5.2-5.2H41"/>
			<path class="st1" d="M121.7,125.7h21c2.9,0,5.2,2.3,5.2,5.2v20.9"/>
			<path class="st1" d="M14.9,184v21c0,2.9,2.3,5.2,5.2,5.2H41"/>
			<path class="st1" d="M121.7,210.3h21c2.9,0,5.2-2.3,5.2-5.2v-20.9"/>
			<line class="st1" x1="10.8" y1="169.3" x2="152.1" y2="169.3"/>
		</g>
		<g>
			<path class="st0" d="M192.1,54.6l-36.9-0.1c-2.2,0-3.9-1.8-3.9-4l0-16.3c0-2.2-1.8-4-3.9-4l-11.9,0c-2.2,0-4,1.8-4,3.9l-0.1,57.5
				c0,2.2,1.8,4,3.9,4l11.9,0c2.2,0,4-1.8,4-3.9l0-19.1c0-2.2,1.8-3.9,4-3.9l36.9,0.1c3.9,0,7.1-3.1,7.1-7v0
				C199.1,57.8,196,54.6,192.1,54.6z"/>
			<path class="st0" d="M149.6,35.7l42.9,0.1c15.3,0,27.7,12.5,27.7,27.8l0,19.5c0,4.3-3.5,7.7-7.8,7.7l-62.9-0.1"/>
			<path class="st0" d="M237.3,186.3l-62.4-0.1c-1.9,0-3.4-1.5-3.4-3.4l0-8.2c0-8.6,7-15.6,15.6-15.5l50.2,0.1
				c1.9,0,3.4,1.5,3.4,3.4l0,20.4C240.7,184.8,239.1,186.3,237.3,186.3z"/>
			<line class="st0" x1="166.3" y1="92" x2="192" y2="158.2"/>
			<path class="st0" d="M199.9,90.4c0,0,19.5,18.6,26.7,39.9c6.5,19.1,6.7,28.7,6.7,28.7"/>
		</g>
	</g>
	<g class="st5">
		<line class="st1" x1="31" y1="145.6" x2="31" y2="189.6"/>
		<line class="st1" x1="78.8" y1="145.6" x2="78.8" y2="189.6"/>
		<g>
			<line class="st1" x1="45.9" y1="145.6" x2="45.9" y2="168.5"/>
			<line class="st1" x1="45.9" y1="180.8" x2="45.9" y2="189.6"/>
		</g>
		<g>
			<line class="st1" x1="60.9" y1="145.6" x2="60.9" y2="168.5"/>
			<line class="st1" x1="60.9" y1="180.8" x2="60.9" y2="189.6"/>
		</g>
		<line class="st1" x1="130.2" y1="145.6" x2="130.2" y2="189.6"/>
		<g>
			<line class="st1" x1="97.3" y1="145.6" x2="97.3" y2="168.5"/>
			<line class="st1" x1="97.3" y1="180.8" x2="97.3" y2="189.6"/>
		</g>
		<g>
			<line class="st1" x1="112.3" y1="145.6" x2="112.3" y2="168.5"/>
			<line class="st1" x1="112.3" y1="180.8" x2="112.3" y2="189.6"/>
		</g>
	</g>
</g>
</svg>
