<?xml version="1.0" encoding="utf-8"?>
<!-- Generator: Adobe Illustrator 28.2.0, SVG Export Plug-In . SVG Version: 6.00 Build 0)  -->
<svg version="1.1" id="Layer_1" xmlns="http://www.w3.org/2000/svg" xmlns:xlink="http://www.w3.org/1999/xlink" x="0px" y="0px"
	 viewBox="0 0 251 251" style="enable-background:new 0 0 251 251;" xml:space="preserve">
<style type="text/css">
	.st0{display:none;}
	.st1{display:inline;}
	.st2{fill:none;stroke:#000000;stroke-width:7.7658;stroke-linecap:round;stroke-linejoin:round;stroke-miterlimit:10;}
	.st3{fill:none;stroke:#000000;stroke-width:7.7658;stroke-miterlimit:10;}
	.st4{fill:none;stroke:#000000;stroke-width:7.7658;stroke-linecap:round;stroke-miterlimit:10;}
</style>
<g class="st0">
	<g class="st1">
		<g>
			<path class="st2" d="M14.9,152v-21c0-2.9,2.3-5.2,5.2-5.2H41"/>
			<path class="st2" d="M121.7,125.7h21c2.9,0,5.2,2.3,5.2,5.2v20.9"/>
			<path class="st2" d="M14.9,184v21c0,2.9,2.3,5.2,5.2,5.2H41"/>
			<path class="st2" d="M121.7,210.3h21c2.9,0,5.2-2.3,5.2-5.2v-20.9"/>
			<line class="st2" x1="10.8" y1="169.3" x2="152.1" y2="169.3"/>
		</g>
		<g>
			<path class="st3" d="M192.1,54.6l-36.9-0.1c-2.2,0-3.9-1.8-3.9-4V34.2c0-2.2-1.8-4-3.9-4h-11.9c-2.2,0-4,1.8-4,3.9l-0.1,57.5
				c0,2.2,1.8,4,3.9,4h11.9c2.2,0,4-1.8,4-3.9V72.6c0-2.2,1.8-3.9,4-3.9l36.9,0.1c3.9,0,7.1-3.1,7.1-7l0,0
				C199.1,57.8,196,54.6,192.1,54.6z"/>
			<path class="st3" d="M149.6,35.7l42.9,0.1c15.3,0,27.7,12.5,27.7,27.8v19.5c0,4.3-3.5,7.7-7.8,7.7l-62.9-0.1"/>
			<path class="st3" d="M237.3,186.3l-62.4-0.1c-1.9,0-3.4-1.5-3.4-3.4v-8.2c0-8.6,7-15.6,15.6-15.5l50.2,0.1c1.9,0,3.4,1.5,3.4,3.4
				V183C240.7,184.8,239.1,186.3,237.3,186.3z"/>
			<line class="st3" x1="166.3" y1="92" x2="192" y2="158.2"/>
			<path class="st3" d="M199.9,90.4c0,0,19.5,18.6,26.7,39.9c6.5,19.1,6.7,28.7,6.7,28.7"/>
		</g>
	</g>
	<g class="st1">
		<line class="st2" x1="31" y1="145.6" x2="31" y2="189.6"/>
		<line class="st2" x1="78.8" y1="145.6" x2="78.8" y2="189.6"/>
		<g>
			<line class="st2" x1="45.9" y1="145.6" x2="45.9" y2="168.5"/>
			<line class="st2" x1="45.9" y1="180.8" x2="45.9" y2="189.6"/>
		</g>
		<g>
			<line class="st2" x1="60.9" y1="145.6" x2="60.9" y2="168.5"/>
			<line class="st2" x1="60.9" y1="180.8" x2="60.9" y2="189.6"/>
		</g>
		<line class="st2" x1="130.2" y1="145.6" x2="130.2" y2="189.6"/>
		<g>
			<line class="st2" x1="97.3" y1="145.6" x2="97.3" y2="168.5"/>
			<line class="st2" x1="97.3" y1="180.8" x2="97.3" y2="189.6"/>
		</g>
		<g>
			<line class="st2" x1="112.3" y1="145.6" x2="112.3" y2="168.5"/>
			<line class="st2" x1="112.3" y1="180.8" x2="112.3" y2="189.6"/>
		</g>
	</g>
</g>
<g id="rZ1hSH.tif">
	
		<image style="overflow:visible;" width="215" height="196" id="Layer_0" xlink:href="8018D5A69E6528CF.png"  transform="matrix(1 0 0 1 -806.1335 -40.7378)">
	</image>
</g>
<g>
	<g>
		<path class="st4" d="M154,145.8v-29.5c0-5,4-9,9-9h0c5,0,9,4,9,9v29.5"/>
		<path class="st4" d="M172.1,145.8V121c0-5,4-9,9-9h0c5,0,9,4,9,9v24.7"/>
		<path class="st4" d="M154,145.8V86.6c0-5-4-9-9-9h0c-5,0-9,4-9,9l-0.1,62.6c0,6.5-7.4,10.2-12.6,6.3l-25-18.4
			c-5.8-4.3-13.9-3.1-18.3,2.6l0,0c-1.3,1.8-1.2,4.2,0.4,5.8l22.4,21.9c6,5.9,10.7,13,13.7,20.9c3.9,10.4,16.4,25.1,25.5,29.1v16.9
			c0,3.2,2.6,5.8,5.8,5.8h43.8c3.2,0,5.8-2.6,5.8-5.8v-16.9c0,0,3.8-6.5,6.8-13.8c3-7.4,4-22.6,4-36.2v-34.1c0-5-4-9-9-9h0
			c-5,0-9,4-9,9v12.4"/>
		<line class="st4" x1="142" y1="217.4" x2="197.7" y2="217.4"/>
	</g>
	<line class="st4" x1="209.9" y1="28.4" x2="181.2" y2="28.4"/>
	<line class="st4" x1="121.9" y1="28.4" x2="41.1" y2="28.4"/>
	<circle class="st4" cx="152.6" cy="25.9" r="12.8"/>
	<line class="st4" x1="41.1" y1="63.5" x2="69.8" y2="63.5"/>
	<line class="st4" x1="129.1" y1="63.5" x2="209.9" y2="63.5"/>
	<g>
		<line class="st4" x1="209.9" y1="98.4" x2="183.3" y2="98.4"/>
		<line class="st4" x1="115.2" y1="98.4" x2="41.1" y2="98.4"/>
	</g>
	<circle class="st4" cx="98.4" cy="61" r="12.8"/>
</g>
</svg>
